<?xml version="1.0" standalone="no"?>
<!DOCTYPE svg PUBLIC "-//W3C//DTD SVG 20010904//EN"
 "http://www.w3.org/TR/2001/REC-SVG-20010904/DTD/svg10.dtd">
<svg version="1.0" xmlns="http://www.w3.org/2000/svg"
 width="197.000000pt" height="499.000000pt" viewBox="0 0 197.000000 499.000000"
 preserveAspectRatio="xMidYMid meet">

<g transform="translate(0.000000,499.000000) scale(0.100000,-0.100000)"
fill="#000000" stroke="none">
<path d="M972 4768 c-7 -7 -12 -25 -12 -40 0 -19 -5 -28 -16 -28 -8 0 -13 4
-9 10 3 5 3 20 -1 34 -9 38 -45 29 -59 -15 -7 -19 -19 -35 -28 -37 -19 -4 -23
13 -6 24 8 4 7 9 -2 15 -25 15 -37 10 -48 -22 -11 -31 -39 -36 -33 -5 4 23
-15 20 -23 -4 -3 -11 -11 -21 -16 -21 -5 -1 -13 -2 -18 -3 -19 -2 -24 -16 -11
-31 10 -12 10 -21 1 -44 -23 -53 -30 -144 -15 -168 8 -12 14 -40 14 -62 0 -35
-33 -273 -101 -716 -11 -71 -26 -173 -34 -227 -8 -53 -20 -118 -26 -145 -12
-48 -54 -132 -73 -145 -5 -3 -11 -14 -12 -23 -1 -9 -14 -33 -27 -53 -43 -64
-71 -139 -82 -222 -6 -41 -9 -534 -6 -759 1 -66 -2 -97 -11 -102 -9 -6 -9 -13
-1 -31 20 -41 21 -54 8 -78 -10 -20 -10 -26 1 -38 15 -15 19 -32 7 -32 -10 0
-8 -1141 1 -1246 9 -97 30 -181 55 -214 41 -57 161 -78 486 -87 240 -6 468 7
550 31 24 8 59 26 79 42 30 24 35 34 31 56 -4 14 -1 29 4 33 6 3 11 17 11 30
0 13 4 26 8 29 7 4 18 1227 12 1301 -2 25 -2 44 0 70 7 96 -3 963 -11 1010 -6
33 -12 67 -13 75 -4 26 -37 93 -67 137 -16 23 -29 48 -29 57 0 8 -6 19 -14 23
-29 17 -92 207 -79 240 3 7 1 19 -5 26 -5 6 -12 37 -16 67 -19 143 -36 266
-54 385 -12 72 -28 177 -36 235 -9 58 -21 134 -26 170 -15 91 -15 139 -2 152
16 16 15 105 -2 162 -13 43 -13 47 5 57 16 8 19 17 13 47 -8 44 -22 65 -40 58
-7 -3 -18 2 -24 10 -15 17 -37 18 -43 2 -3 -10 -9 -9 -22 4 -14 13 -24 14 -43
7 -17 -6 -29 -6 -36 1 -14 14 -39 13 -54 -2z m68 -47 c0 -11 -4 -23 -10 -26
-6 -4 -10 5 -10 19 0 14 5 26 10 26 6 0 10 -9 10 -19z m-274 -125 c-3 -14 -1
-26 4 -28 17 -5 21 -65 5 -78 -8 -6 -19 -9 -25 -5 -5 3 -10 -1 -10 -10 0 -10
-7 -15 -17 -13 -13 3 -17 12 -15 33 2 17 7 31 12 33 5 2 7 9 4 17 -3 7 0 24 7
37 7 13 12 26 11 31 -1 4 5 7 14 7 12 0 15 -6 10 -24z m14 -195 c0 -12 9 -21
25 -25 27 -7 35 -36 10 -36 -8 0 -15 -7 -15 -16 0 -11 5 -14 16 -10 15 6 16
-1 11 -61 -4 -37 -11 -69 -17 -71 -5 -2 -10 -10 -10 -18 0 -9 5 -12 10 -9 6 3
10 2 10 -4 0 -6 -12 -14 -26 -17 -17 -4 -23 -11 -20 -21 3 -8 1 -23 -4 -34 -8
-15 -7 -19 5 -19 8 0 15 -4 15 -10 0 -5 -6 -10 -14 -10 -22 0 -32 -61 -12 -72
22 -12 20 -28 -4 -28 -11 0 -20 -7 -20 -15 0 -8 7 -15 15 -15 17 0 20 -16 5
-25 -6 -4 -10 -16 -8 -28 2 -16 -2 -21 -14 -19 -9 1 -19 -2 -23 -8 -8 -13 4
-50 16 -50 6 0 8 4 5 9 -3 5 0 14 8 20 11 9 15 6 18 -14 4 -18 0 -29 -13 -36
-11 -5 -19 -16 -19 -24 0 -8 -6 -15 -14 -15 -20 0 -31 -19 -18 -32 6 -6 8 -16
6 -23 -7 -16 12 -29 21 -15 4 6 2 17 -4 24 -12 14 -5 26 17 26 11 0 12 -9 7
-42 -10 -56 -14 -63 -30 -41 -13 17 -14 17 -21 -1 -4 -11 -2 -21 7 -27 12 -7
12 -9 -1 -10 -8 -1 -21 -1 -27 0 -7 1 -13 -3 -13 -9 0 -5 15 -10 33 -10 17 0
39 -5 47 -10 11 -8 7 -9 -14 -4 -20 5 -27 3 -22 -4 3 -6 -3 -13 -14 -17 -22
-7 -26 -20 -10 -30 6 -3 10 -1 10 4 0 19 26 12 26 -6 0 -10 4 -29 8 -43 l8
-25 -21 23 c-26 26 -39 28 -48 6 -4 -10 1 -22 10 -29 23 -16 12 -76 -15 -82
-10 -3 -18 -14 -18 -24 0 -23 16 -25 36 -4 17 17 44 20 44 5 0 -5 -7 -10 -15
-10 -9 0 -15 -9 -15 -24 l0 -24 -45 17 c-30 10 -45 22 -45 33 0 10 4 18 8 18
5 0 8 21 8 48 0 39 13 163 38 357 2 17 9 82 15 145 17 167 19 177 41 183 26 7
26 37 1 37 -15 0 -18 5 -14 23 3 12 10 28 16 35 5 7 6 12 0 12 -5 0 -3 37 5
88 8 48 14 101 13 119 -1 30 6 36 42 42 4 0 7 -8 7 -18z m-162 -1147 c11 6 38
-21 30 -30 -3 -3 -17 -2 -32 2 -18 4 -26 13 -26 28 0 16 2 18 9 7 5 -7 13 -11
19 -7z m-18 -124 c0 -5 -5 -10 -11 -10 -5 0 -7 5 -4 10 3 6 8 10 11 10 2 0 4
-4 4 -10z m-20 -50 c0 -5 -2 -10 -4 -10 -3 0 -8 5 -11 10 -3 6 -1 10 4 10 6 0
11 -4 11 -10z m-16 -16 c9 -3 16 -17 16 -30 0 -13 5 -24 10 -24 6 0 10 -6 10
-14 0 -9 -7 -12 -20 -9 -15 4 -20 0 -20 -16 0 -34 2 -36 24 -34 20 3 20 2 -1
-7 -24 -10 -30 -25 -14 -35 6 -3 6 -17 -1 -35 -12 -35 2 -60 33 -60 11 0 19
-7 19 -15 0 -8 -5 -15 -11 -15 -21 0 -49 21 -49 36 0 10 -6 14 -14 11 -8 -3
-17 -3 -20 0 -12 12 -57 12 -53 0 2 -7 10 -12 18 -13 39 -3 40 -3 27 -24 -16
-26 -2 -39 17 -14 13 17 14 17 15 2 0 -19 20 -26 20 -7 0 5 5 7 11 3 8 -5 6
-10 -5 -16 -9 -5 -16 -21 -16 -35 0 -20 4 -24 20 -20 24 6 37 -10 21 -26 -8
-8 -11 -8 -11 1 0 18 -30 2 -30 -17 -1 -14 -2 -14 -11 2 -13 23 -29 22 -29 -3
0 -11 7 -20 15 -20 8 0 15 -7 15 -15 0 -8 -5 -15 -12 -15 -6 0 -2 -8 10 -18
16 -14 18 -22 10 -30 -7 -7 -18 -12 -25 -12 -8 0 -16 -7 -19 -15 -9 -23 -23
-18 -30 11 -6 22 -10 24 -35 19 -33 -7 -36 -3 -13 20 15 15 15 17 -5 32 -22
15 -26 55 -6 53 6 -1 9 -7 7 -15 -4 -19 15 -28 21 -11 3 8 -2 22 -12 32 -29
32 -32 53 -11 64 24 13 26 38 5 46 -17 7 -21 44 -4 44 7 0 9 11 6 30 -5 20 -3
28 6 24 8 -3 12 8 13 33 0 21 8 56 18 77 15 37 17 38 30 21 12 -16 16 -17 30
-6 19 16 21 38 4 43 -6 2 -8 10 -4 16 8 14 9 14 30 6z m41 -104 c3 -5 -1 -10
-10 -10 -9 0 -13 5 -10 10 3 6 8 10 10 10 2 0 7 -4 10 -10z m643 -39 c9 1 28
1 42 0 22 -1 23 -3 8 -12 -22 -12 -24 -33 -2 -25 10 4 18 -3 26 -24 5 -17 14
-30 20 -30 6 0 8 -7 5 -14 -4 -9 -1 -13 6 -10 7 2 12 -6 13 -23 0 -16 4 -40 8
-56 7 -23 6 -26 -8 -21 -9 3 -16 1 -16 -5 0 -6 5 -11 10 -11 6 0 6 -7 -1 -19
-9 -13 -9 -27 -2 -47 11 -30 1 -74 -16 -74 -18 0 -21 -33 -4 -47 16 -13 15
-14 -15 -9 -38 7 -57 -18 -29 -39 23 -17 21 -22 -5 -20 -13 1 -27 0 -31 -2
-16 -9 38 -30 83 -32 91 -5 109 -8 125 -21 15 -13 17 -66 13 -609 -2 -433 -6
-598 -15 -610 -10 -14 -63 -16 -488 -16 -445 0 -477 -1 -486 -18 -6 -9 -15
-15 -20 -11 -5 3 -16 1 -24 -6 -22 -18 -24 8 -24 290 0 146 0 422 -1 614 -1
312 1 350 16 367 16 18 12 55 -5 45 -5 -3 -7 3 -4 13 3 10 0 28 -6 40 -9 16
-9 21 1 22 7 0 23 2 35 3 14 2 23 -3 23 -11 0 -7 8 -12 17 -11 10 1 29 0 43
-1 23 -1 23 -3 7 -12 -10 -6 -21 -8 -24 -5 -4 3 -12 1 -19 -5 -8 -7 -14 -7
-19 1 -10 17 -25 11 -25 -10 0 -12 6 -20 12 -19 7 1 21 -1 32 -6 12 -5 21 -3
28 6 7 10 8 8 5 -8 -5 -22 -2 -23 66 -24 167 -2 602 3 606 7 8 8 -16 25 -38
27 -11 1 -21 7 -21 15 0 7 5 10 10 7 6 -3 10 -4 10 -1 0 2 3 12 7 22 5 14 2
16 -21 10 -17 -4 -25 -3 -22 3 3 5 2 21 -3 34 -8 20 -6 27 7 32 15 5 13 9 -10
27 -28 20 -38 48 -17 48 8 0 8 5 -1 15 -10 12 -10 18 0 30 14 16 5 35 -16 35
-10 0 -13 7 -8 25 4 18 1 27 -10 31 -23 9 -20 22 13 54 16 16 28 36 27 44 0 7
16 28 38 45 31 25 42 29 57 20 11 -5 27 -9 37 -8z m-628 -62 c0 -4 -7 -6 -15
-3 -8 4 -15 10 -15 15 0 4 7 6 15 3 8 -4 15 -10 15 -15z m-30 -339 c0 -5 -5
-10 -11 -10 -5 0 -7 5 -4 10 3 6 8 10 11 10 2 0 4 -4 4 -10z m-108 -1489 c-5
-29 -7 -49 -4 -46 6 6 32 -14 32 -25 0 -4 -9 -10 -20 -13 -11 -3 -20 -1 -20 4
0 5 -4 9 -10 9 -23 0 -8 -39 20 -52 30 -13 40 -41 19 -54 -6 -3 -15 -1 -19 6
-4 7 -13 9 -19 6 -16 -10 -14 -46 3 -46 18 0 26 -20 16 -40 -15 -29 -22 -100
-11 -100 6 0 11 11 11 24 0 13 7 29 15 36 12 10 15 9 15 -8 0 -11 6 -23 13
-25 7 -3 4 -6 -6 -6 -16 -1 -18 -8 -15 -48 3 -42 1 -48 -17 -48 -18 0 -21 -5
-16 -36 0 -6 10 -8 20 -4 11 3 22 1 26 -4 9 -16 -14 -53 -28 -44 -8 5 -8 8 1
11 17 5 15 22 -3 22 -9 0 -15 -9 -15 -25 0 -16 6 -25 15 -25 8 0 15 -5 15 -11
0 -5 -5 -7 -10 -4 -6 3 -13 -1 -16 -9 -9 -22 -26 -8 -19 15 4 11 2 19 -4 19
-6 0 -11 7 -11 15 0 8 5 15 10 15 6 0 10 7 10 15 0 8 -7 15 -15 15 -19 0 -19
7 0 26 8 8 12 21 9 29 -4 8 -1 15 5 15 6 0 11 7 11 15 0 8 -4 15 -10 15 -5 0
-10 -7 -10 -15 0 -8 -7 -15 -15 -15 -8 0 -15 7 -15 15 0 9 7 18 15 21 8 4 15
10 15 15 0 4 -6 6 -13 4 -9 -4 -12 16 -12 84 1 50 4 93 8 97 11 11 8 44 -3 44
-14 0 -12 16 3 32 19 19 20 78 1 78 -18 0 -18 8 0 25 7 8 17 11 21 7 3 -4 11
1 17 11 16 30 20 13 10 -42z m38 -25 c0 -3 -4 -8 -10 -11 -5 -3 -10 -1 -10 4
0 6 5 11 10 11 6 0 10 -2 10 -4z m20 -230 c0 -3 -4 -8 -10 -11 -5 -3 -10 -1
-10 4 0 6 5 11 10 11 6 0 10 -2 10 -4z m820 -114 c0 -2 -3 -1 -7 1 -5 2 -16 7
-26 10 -10 4 -16 11 -12 17 5 8 45 -17 45 -28z m-65 -2 c7 0 15 -9 18 -20 3
-13 10 -18 21 -14 10 4 16 1 16 -9 0 -8 7 -20 15 -27 20 -16 19 -28 -1 -26 -9
0 -21 -7 -28 -17 -9 -15 -7 -21 14 -37 14 -11 21 -20 15 -20 -5 -1 -1 -5 10
-10 16 -7 17 -9 3 -9 -9 -1 -20 4 -23 9 -3 6 -15 10 -26 10 -10 0 -19 -4 -19
-10 0 -5 -7 -10 -15 -10 -8 0 -15 -7 -15 -15 0 -9 -6 -12 -15 -9 -8 4 -12 10
-9 15 3 5 -2 9 -10 9 -9 0 -16 -5 -16 -11 0 -7 -13 -9 -37 -5 -21 4 -48 8 -60
9 -14 1 -23 9 -23 20 0 20 13 22 39 5 35 -21 52 -1 42 51 -1 3 -7 -4 -15 -14
-9 -13 -19 -16 -32 -11 -18 8 -18 9 4 17 23 9 31 39 10 39 -10 0 -10 2 0 9 8
4 13 10 12 12 -5 15 16 39 40 44 16 3 31 13 34 22 4 9 13 13 22 9 9 -3 21 -6
29 -6z"/>
<path d="M805 4290 c-3 -5 -1 -10 4 -10 6 0 11 5 11 10 0 6 -2 10 -4 10 -3 0
-8 -4 -11 -10z"/>
<path d="M750 4265 c0 -8 5 -15 10 -15 6 0 10 7 10 15 0 8 -4 15 -10 15 -5 0
-10 -7 -10 -15z"/>
<path d="M730 4210 c0 -5 5 -10 10 -10 6 0 10 5 10 10 0 6 -4 10 -10 10 -5 0
-10 -4 -10 -10z"/>
<path d="M710 4020 c0 -5 5 -10 10 -10 6 0 10 5 10 10 0 6 -4 10 -10 10 -5 0
-10 -4 -10 -10z"/>
<path d="M690 3969 c0 -5 5 -7 10 -4 6 3 10 8 10 11 0 2 -4 4 -10 4 -5 0 -10
-5 -10 -11z"/>
<path d="M730 3890 c0 -5 5 -10 10 -10 6 0 10 5 10 10 0 6 -4 10 -10 10 -5 0
-10 -4 -10 -10z"/>
<path d="M655 3631 c-6 -11 9 -23 19 -14 9 9 7 23 -3 23 -6 0 -12 -4 -16 -9z"/>
<path d="M650 3529 c0 -5 5 -7 10 -4 6 3 10 8 10 11 0 2 -4 4 -10 4 -5 0 -10
-5 -10 -11z"/>
<path d="M516 2973 c-11 -11 -6 -23 9 -23 8 0 15 4 15 9 0 13 -16 22 -24 14z"/>
<path d="M480 2945 c0 -8 5 -15 10 -15 6 0 10 7 10 15 0 8 -4 15 -10 15 -5 0
-10 -7 -10 -15z"/>
<path d="M477 2904 c-8 -8 1 -24 14 -24 5 0 9 7 9 15 0 15 -12 20 -23 9z"/>
<path d="M516 2874 c-8 -20 1 -34 20 -34 8 0 14 10 14 25 0 28 -24 34 -34 9z"/>
<path d="M470 2723 c0 -25 1 -26 16 -11 9 9 13 21 10 27 -13 20 -26 11 -26
-16z"/>
<path d="M440 2716 c0 -9 5 -16 10 -16 6 0 10 4 10 9 0 6 -4 13 -10 16 -5 3
-10 -1 -10 -9z"/>
<path d="M520 2715 c0 -8 5 -15 10 -15 6 0 10 7 10 15 0 8 -4 15 -10 15 -5 0
-10 -7 -10 -15z"/>
<path d="M470 2665 c0 -26 24 -35 32 -12 7 18 -2 37 -18 37 -8 0 -14 -10 -14
-25z"/>
<path d="M1175 2911 c-6 -11 9 -23 19 -14 9 9 7 23 -3 23 -6 0 -12 -4 -16 -9z"/>
<path d="M1120 2790 c0 -5 5 -10 10 -10 6 0 10 5 10 10 0 6 -4 10 -10 10 -5 0
-10 -4 -10 -10z"/>
<path d="M1250 2710 c0 -5 5 -10 10 -10 6 0 10 5 10 10 0 6 -4 10 -10 10 -5 0
-10 -4 -10 -10z"/>
<path d="M1310 2700 c0 -5 5 -10 10 -10 6 0 10 5 10 10 0 6 -4 10 -10 10 -5 0
-10 -4 -10 -10z"/>
<path d="M1305 2660 c-3 -5 -1 -10 4 -10 6 0 11 5 11 10 0 6 -2 10 -4 10 -3 0
-8 -4 -11 -10z"/>
<path d="M1307 2593 c-12 -11 -8 -33 6 -33 7 0 13 9 14 20 2 20 -8 26 -20 13z"/>
<path d="M1210 2569 c0 -5 5 -7 10 -4 6 3 10 8 10 11 0 2 -4 4 -10 4 -5 0 -10
-5 -10 -11z"/>
<path d="M1175 2540 c-3 -5 1 -10 10 -10 9 0 13 5 10 10 -3 6 -8 10 -10 10 -2
0 -7 -4 -10 -10z"/>
<path d="M1247 2544 c-11 -11 3 -24 18 -18 8 4 12 10 9 15 -6 11 -18 12 -27 3z"/>
<path d="M1200 2481 c0 -18 18 -21 30 -6 10 13 9 15 -9 15 -11 0 -21 -4 -21
-9z"/>
<path d="M435 800 c-8 -13 3 -30 21 -30 18 0 18 14 0 29 -10 8 -16 9 -21 1z"/>
<path d="M1230 600 c0 -5 7 -10 15 -10 8 0 15 5 15 10 0 6 -7 10 -15 10 -8 0
-15 -4 -15 -10z"/>
<path d="M1200 551 c0 -11 26 -22 34 -14 3 3 3 10 0 14 -7 12 -34 11 -34 0z"/>
<path d="M1266 535 c-6 -17 17 -31 34 -20 8 5 8 11 -1 21 -15 18 -25 18 -33
-1z"/>
<path d="M1215 490 c-4 -6 3 -10 14 -10 25 0 27 6 6 13 -8 4 -17 2 -20 -3z"/>
</g>
</svg>
